{"title":"Tool - Lateralus [16-bit 44.1kHz HDCD flac] MC Lurken Mix","uid":9194843,"size":477313055,"categoryP":"audio","categoryS":"flac","magnet":"?xt=urn:btih:0111a1fafc850d2e6a63ce4344509414c3c63da0&amp;dn=Tool+-+Lateralus+%5B16-bit+44.1kHz+HDCD+flac%5D+MC+Lurken+Mix&amp;tr=udp%3A%2F%2Ftracker.openbittorrent.com%3A80&amp;tr=udp%3A%2F%2Fopen.demonii.com%3A1337&amp;tr=udp%3A%2F%2Ftracker.coppersurfer.tk%3A6969&amp;tr=udp%3A%2F%2Fexodus.desync.com%3A6969","seeders":1,"leechers":1,"uploader":"beavis39","files":-1,"time":1384464159,"description":"\nTool - Lateralus [24-bit 96kHz HDCD flac] MC Lurken Mix\n\n\n\n**MC Lurken Mix featuring custom Izotope Ozone 5 VST (EQ, Dynamics, Imaging, Dither) and 64-bit/384kHz processing. Presented in CD quality 16-bit/44.1kHz**\n\n\n\nA couple months ago I ran across this vinyl rip of Lateralus (http://thepiratebay.se/torrent/8261839/TOOL_Lateralus_%28LINN_LP12_vinyl%29_FLAC) posted on a vinyl rip site. In a topic of this rip there was a claim that this was the best version out there. My remaster of Lateralus (http://thepiratebay.se/torrent/8086539/Tool_-_Lateralus_-_Custom_Remaster_by_MC_Lurken_16-bit_44.1kHz_f) was also brought into the conversation with some people claiming they liked mine better. Knowing I could do better after some recent improvements I have decided to do another version. Lateralus is quickly becoming one of my favorite albums and I hope you all enjoy this new version as much as I do.\n\n\n\n\n1 - The Grudge\n2 - Eon Blue Apocalypse\n3 - The Patient\n4 - Mantra\n5 - Schism\n6 - Parabol\n7 - Parabola\n8 - Ticks &amp; Leeches\n9 - Lateralus\n10 - Disposition\n11 - Reflection\n12 - Triad\n13 - Faaip de Oiad\n\n\n\n\nfoobar2000 1.2.9 / Dynamic Range Meter 1.1.1\nlog date: 2013-11-13 07:13:05\n\n--------------------------------------------------------------------------------\nAnalyzed: Tool / Lateralus\n--------------------------------------------------------------------------------\n\nDR Peak RMS Duration Track\n--------------------------------------------------------------------------------\nDR9 -0.45 dB -11.78 dB 8:36 01-01 - The Grudge\nDR17 -8.18 dB -30.33 dB 1:05 02-02 - Eon Blue Apocalypse\nDR9 -0.57 dB -13.31 dB 7:14 03-03 - The Patient\nDR11 -9.30 dB -23.49 dB 1:13 04-04 - Mantra\nDR9 -0.24 dB -12.53 dB 6:48 05-05 - Schism\nDR9 -2.99 dB -22.34 dB 3:04 06-06 - Parabol\nDR9 -0.47 dB -11.58 dB 6:04 07-07 - Parabola\nDR9 -0.44 dB -12.54 dB 8:10 08-08 - Ticks &amp; Leeches\nDR9 -0.45 dB -11.84 dB 9:24 09-09 - Lateralus\nDR12 -3.20 dB -19.36 dB 4:46 10-10 - Disposition\nDR10 -0.67 dB -12.94 dB 11:08 11-11 - Reflection\nDR9 -0.53 dB -13.32 dB 8:47 12-12 - Triad\nDR10 -0.74 dB -15.03 dB 2:39 13-13 - Faaip de Oiad\n--------------------------------------------------------------------------------\n\nNumber of tracks: 13\nOfficial DR value: DR10\n\nSamplerate: 44100 Hz\nChannels: 2\nBits per sample: 16\nBitrate: 1411 kbps\nCodec: PCM\n\n\n\nenjoy the music :)\n","torrent":{"xt":"urn:btih:0111a1fafc850d2e6a63ce4344509414c3c63da0","amp;dn":"Tool+-+Lateralus+%5B16-bit+44.1kHz+HDCD+flac%5D+MC+Lurken+Mix","amp;tr":["udp%3A%2F%2Ftracker.openbittorrent.com%3A80","udp%3A%2F%2Fopen.demonii.com%3A1337","udp%3A%2F%2Ftracker.coppersurfer.tk%3A6969","udp%3A%2F%2Fexodus.desync.com%3A6969"],"infoHash":"0111a1fafc850d2e6a63ce4344509414c3c63da0","infoHashBuffer":{"type":"Buffer","data":[1,17,161,250,252,133,13,46,106,99,206,67,68,80,148,20,195,198,61,160]},"announce":[],"urlList":[]}}